<svg id="Componente_58_1" data-name="Componente 58 – 1" xmlns="http://www.w3.org/2000/svg" xmlns:xlink="http://www.w3.org/1999/xlink" width="761.035" height="452.367" viewBox="0 0 761.035 452.367">
  <defs>
    <filter id="Intersección_2">
      <feOffset input="SourceAlpha"/>
      <feGaussianBlur stdDeviation="3" result="blur"/>
      <feFlood flood-opacity="0.8" result="color"/>
      <feComposite operator="out" in="SourceGraphic" in2="blur"/>
      <feComposite operator="in" in="color"/>
      <feComposite operator="in" in2="SourceGraphic"/>
    </filter>
    <filter id="Rectángulo_28">
      <feOffset input="SourceAlpha"/>
      <feGaussianBlur stdDeviation="10" result="blur-2"/>
      <feFlood flood-opacity="0.8" result="color-2"/>
      <feComposite operator="out" in="SourceGraphic" in2="blur-2"/>
      <feComposite operator="in" in="color-2"/>
      <feComposite operator="in" in2="SourceGraphic"/>
    </filter>
    <filter id="Rectángulo_29">
      <feOffset input="SourceAlpha"/>
      <feGaussianBlur stdDeviation="10" result="blur-3"/>
      <feFlood flood-opacity="0.8" result="color-3"/>
      <feComposite operator="out" in="SourceGraphic" in2="blur-3"/>
      <feComposite operator="in" in="color-3"/>
      <feComposite operator="in" in2="SourceGraphic"/>
    </filter>
    <filter id="Rectángulo_30">
      <feOffset input="SourceAlpha"/>
      <feGaussianBlur stdDeviation="10" result="blur-4"/>
      <feFlood flood-opacity="0.8" result="color-4"/>
      <feComposite operator="out" in="SourceGraphic" in2="blur-4"/>
      <feComposite operator="in" in="color-4"/>
      <feComposite operator="in" in2="SourceGraphic"/>
    </filter>
    <filter id="Rectángulo_31">
      <feOffset input="SourceAlpha"/>
      <feGaussianBlur stdDeviation="10" result="blur-5"/>
      <feFlood flood-opacity="0.8" result="color-5"/>
      <feComposite operator="out" in="SourceGraphic" in2="blur-5"/>
      <feComposite operator="in" in="color-5"/>
      <feComposite operator="in" in2="SourceGraphic"/>
    </filter>
    <radialGradient id="radial-gradient" cx="0.5" cy="0.1" r="1" gradientUnits="objectBoundingBox">
      <stop offset="0" stop-color="#fff"/>
      <stop offset="1" stop-color="#fff"/>
    </radialGradient>
    <filter id="Rectángulo_32">
      <feOffset input="SourceAlpha"/>
      <feGaussianBlur stdDeviation="10" result="blur-6"/>
      <feFlood flood-opacity="0.8" result="color-6"/>
      <feComposite operator="out" in="SourceGraphic" in2="blur-6"/>
      <feComposite operator="in" in="color-6"/>
      <feComposite operator="in" in2="SourceGraphic"/>
    </filter>
    <filter id="Rectángulo_33">
      <feOffset input="SourceAlpha"/>
      <feGaussianBlur stdDeviation="10" result="blur-7"/>
      <feFlood flood-opacity="0.8" result="color-7"/>
      <feComposite operator="out" in="SourceGraphic" in2="blur-7"/>
      <feComposite operator="in" in="color-7"/>
      <feComposite operator="in" in2="SourceGraphic"/>
    </filter>
  </defs>
  <g data-type="innerShadowGroup">
    <path id="Intersección_2-2" data-name="Intersección 2" d="M731.763,96.461a20.641,20.641,0,0,1-7.593-10.889q-1.562-4.833-1.562-17.578V45.875h13.477V71.461q0,7.471,1.028,10.376a9.06,9.06,0,0,0,3.3,4.516,9.452,9.452,0,0,0,5.605,1.612,9.789,9.789,0,0,0,5.654-1.588,9.3,9.3,0,0,0,3.45-4.663q.833-2.295.833-9.814V45.875h13.33v22.51q0,13.916-2.2,19.043a20.771,20.771,0,0,1-7.91,9.595q-5.225,3.344-13.281,3.344Q737.159,100.367,731.763,96.461ZM661.71,92.384Q654.2,84.4,654.2,72.535q0-12.305,7.267-20.166a23.154,23.154,0,0,1,17.655-7.861,22.431,22.431,0,0,1,8.974,1.807,24.468,24.468,0,0,1,7.754,5.42V25.367h13.33V99h-13.33V93.385a26.136,26.136,0,0,1-7.827,5.347,21.921,21.921,0,0,1-8.511,1.635Q669.221,100.367,661.71,92.384Zm9.859-31.2a15.748,15.748,0,0,0-4.088,11.206,15.916,15.916,0,0,0,4.161,11.328,13.483,13.483,0,0,0,10.244,4.443A13.733,13.733,0,0,0,692.3,83.79q4.136-4.37,4.136-11.45A15.517,15.517,0,0,0,692.3,61.109a13.9,13.9,0,0,0-10.462-4.3A13.468,13.468,0,0,0,671.568,61.183Zm-105.553,31.3q-7.861-7.885-7.862-19.75,0-12.158,7.837-20.191a26.32,26.32,0,0,1,19.653-8.033q12.55,0,20.41,8.033t7.862,21.216l-.049,2.539H571.045A14.26,14.26,0,0,0,576,85.3a15.553,15.553,0,0,0,10.278,3.344,17.773,17.773,0,0,0,12.842-5.225l11.23,5.274a26.509,26.509,0,0,1-10.058,8.813,31.453,31.453,0,0,1-13.916,2.857Q573.877,100.367,566.015,92.481Zm10.507-33.569q-2.641,1.953-4.892,6.885h28.906a13.374,13.374,0,0,0-5.208-7.227,15.1,15.1,0,0,0-9.024-2.783A15.957,15.957,0,0,0,576.522,58.912ZM448.535,98.121a7.386,7.386,0,0,1-2.246-5.42,7.308,7.308,0,0,1,2.246-5.4,7.724,7.724,0,0,1,10.84,0,7.308,7.308,0,0,1,2.246,5.4,7.665,7.665,0,0,1-13.086,5.42ZM318.505,91.285l8.2-8.935a18.966,18.966,0,0,0,5.493,4.419,12.17,12.17,0,0,0,5.592,1.684,6.671,6.671,0,0,0,4.248-1.269,3.683,3.683,0,0,0,1.611-2.93q0-3.075-5.81-6.006L333.349,76q-12.89-6.495-12.89-16.26a14.109,14.109,0,0,1,4.858-10.767,17.643,17.643,0,0,1,12.426-4.468A21.559,21.559,0,0,1,355.225,53.3l-8.252,8.252q-5.029-4.981-9.13-4.981a5.741,5.741,0,0,0-3.515.952,2.86,2.86,0,0,0-1.27,2.368,2.909,2.909,0,0,0,.806,1.977,15.033,15.033,0,0,0,3.98,2.466l4.883,2.442q7.715,3.808,10.6,7.763A16.172,16.172,0,0,1,351,95.631q-5.2,4.736-13.94,4.736A22.161,22.161,0,0,1,318.505,91.285Zm-56.747,1.1q-7.51-7.984-7.51-19.849,0-12.305,7.267-20.166a23.154,23.154,0,0,1,17.655-7.861,22.423,22.423,0,0,1,8.973,1.807,24.471,24.471,0,0,1,7.755,5.42v-5.86h13.33V99H295.9V93.385a26.136,26.136,0,0,1-7.827,5.347,21.924,21.924,0,0,1-8.511,1.635Q269.27,100.367,261.759,92.384Zm9.859-31.2a15.748,15.748,0,0,0-4.088,11.206,15.916,15.916,0,0,0,4.161,11.328,13.483,13.483,0,0,0,10.244,4.443,13.733,13.733,0,0,0,10.414-4.37q4.136-4.37,4.136-11.45a15.517,15.517,0,0,0-4.136-11.231,13.9,13.9,0,0,0-10.462-4.3A13.468,13.468,0,0,0,271.617,61.183ZM174.194,92.237a26.971,26.971,0,0,1-8.081-19.751,26.877,26.877,0,0,1,9.131-20.751,26.671,26.671,0,0,1,18.408-7.227,28.16,28.16,0,0,1,14.136,3.76,27.572,27.572,0,0,1,14.038,24.121,27.9,27.9,0,0,1-3.736,14.063A26.948,26.948,0,0,1,207.91,96.681a28.11,28.11,0,0,1-14.208,3.686A26.5,26.5,0,0,1,174.194,92.237Zm9.333-30.859a15.349,15.349,0,0,0-4.133,11.059q0,6.934,4.084,11.23a13.66,13.66,0,0,0,10.345,4.3,13.819,13.819,0,0,0,10.418-4.346A15.512,15.512,0,0,0,208.4,72.437a15.412,15.412,0,0,0-4.084-11.109,14.718,14.718,0,0,0-20.787.049ZM110.034,92.066a27.609,27.609,0,0,1,6.69-43.848,32.144,32.144,0,0,1,15.454-3.711,31.346,31.346,0,0,1,14.209,3.149,26.96,26.96,0,0,1,10.3,8.96l-11.1,6.1a18.8,18.8,0,0,0-6.184-4.541,18.583,18.583,0,0,0-7.162-1.269q-7.479,0-12.1,4.46a15.2,15.2,0,0,0-4.62,11.432,14.693,14.693,0,0,0,4.449,11.067q4.448,4.29,11.684,4.29,8.946,0,13.932-6.1l10.511,7.2q-8.544,11.115-24.121,11.114Q117.969,100.367,110.034,92.066ZM621.533,99V45.875h11.426v6.69a14.271,14.271,0,0,1,4.931-6.006,11.9,11.9,0,0,1,6.738-2.051,12.46,12.46,0,0,1,5.42,1.367L645.9,57.35a9.167,9.167,0,0,0-3.857-1.172q-3.077,0-5.2,3.808t-2.124,14.942l.049,2.588V99ZM504.1,99V27.174h11.293q9.827,0,14.373,1.27a19.243,19.243,0,0,1,10.266,6.348,16.689,16.689,0,0,1,3.813,10.937,15.937,15.937,0,0,1-1.733,7.447,18.948,18.948,0,0,1-5.639,6.275q6.543,3.075,9.571,7.69a19.442,19.442,0,0,1,3.027,10.913,20.327,20.327,0,0,1-3.128,11.036,19.969,19.969,0,0,1-8.065,7.446Q532.942,99,524.241,99Zm13.672-13.037H521.2q8.52,0,11.481-2.148a7.237,7.237,0,0,0,2.963-6.25,8.757,8.757,0,0,0-3.477-7.324q-3.476-2.687-11.555-2.686h-2.839Zm0-30.615h2.99q5,0,7.426-2.1a7.163,7.163,0,0,0,2.425-5.712,6.685,6.685,0,0,0-2.3-5.347q-2.3-1.978-7.009-1.977h-3.529ZM396.192,99V27.174H435.4V40.553H409.766V53.541H435.4V66.676H409.766v18.9H435.4V99ZM231.25,99V25.367H244.58V99Zm-152,0V45.875H92.578V99ZM52.619,99l-30.7-47.119V99H8.252V27.174H21.367L52.1,74.44V27.174H65.771V99ZM79.949,38.722A8.575,8.575,0,0,1,77.441,32.5a8.447,8.447,0,0,1,14.485-5.957,8.43,8.43,0,0,1,2.507,6.152A8.331,8.331,0,0,1,91.95,38.77a8.053,8.053,0,0,1-5.94,2.515A8.168,8.168,0,0,1,79.949,38.722Zm656.526-2.563,11.67-19.141h15.772L746.045,36.158Zm-462.7,0,11.67-19.141h15.772L283.35,36.158Z" transform="translate(-8.252 352)" fill="#fff"/>
    <g transform="matrix(1, 0, 0, 1, 0, 0)" filter="url(#Intersección_2)">
      <path id="Intersección_2-3" data-name="Intersección 2" d="M731.763,96.461a20.641,20.641,0,0,1-7.593-10.889q-1.562-4.833-1.562-17.578V45.875h13.477V71.461q0,7.471,1.028,10.376a9.06,9.06,0,0,0,3.3,4.516,9.452,9.452,0,0,0,5.605,1.612,9.789,9.789,0,0,0,5.654-1.588,9.3,9.3,0,0,0,3.45-4.663q.833-2.295.833-9.814V45.875h13.33v22.51q0,13.916-2.2,19.043a20.771,20.771,0,0,1-7.91,9.595q-5.225,3.344-13.281,3.344Q737.159,100.367,731.763,96.461ZM661.71,92.384Q654.2,84.4,654.2,72.535q0-12.305,7.267-20.166a23.154,23.154,0,0,1,17.655-7.861,22.431,22.431,0,0,1,8.974,1.807,24.468,24.468,0,0,1,7.754,5.42V25.367h13.33V99h-13.33V93.385a26.136,26.136,0,0,1-7.827,5.347,21.921,21.921,0,0,1-8.511,1.635Q669.221,100.367,661.71,92.384Zm9.859-31.2a15.748,15.748,0,0,0-4.088,11.206,15.916,15.916,0,0,0,4.161,11.328,13.483,13.483,0,0,0,10.244,4.443A13.733,13.733,0,0,0,692.3,83.79q4.136-4.37,4.136-11.45A15.517,15.517,0,0,0,692.3,61.109a13.9,13.9,0,0,0-10.462-4.3A13.468,13.468,0,0,0,671.568,61.183Zm-105.553,31.3q-7.861-7.885-7.862-19.75,0-12.158,7.837-20.191a26.32,26.32,0,0,1,19.653-8.033q12.55,0,20.41,8.033t7.862,21.216l-.049,2.539H571.045A14.26,14.26,0,0,0,576,85.3a15.553,15.553,0,0,0,10.278,3.344,17.773,17.773,0,0,0,12.842-5.225l11.23,5.274a26.509,26.509,0,0,1-10.058,8.813,31.453,31.453,0,0,1-13.916,2.857Q573.877,100.367,566.015,92.481Zm10.507-33.569q-2.641,1.953-4.892,6.885h28.906a13.374,13.374,0,0,0-5.208-7.227,15.1,15.1,0,0,0-9.024-2.783A15.957,15.957,0,0,0,576.522,58.912ZM448.535,98.121a7.386,7.386,0,0,1-2.246-5.42,7.308,7.308,0,0,1,2.246-5.4,7.724,7.724,0,0,1,10.84,0,7.308,7.308,0,0,1,2.246,5.4,7.665,7.665,0,0,1-13.086,5.42ZM318.505,91.285l8.2-8.935a18.966,18.966,0,0,0,5.493,4.419,12.17,12.17,0,0,0,5.592,1.684,6.671,6.671,0,0,0,4.248-1.269,3.683,3.683,0,0,0,1.611-2.93q0-3.075-5.81-6.006L333.349,76q-12.89-6.495-12.89-16.26a14.109,14.109,0,0,1,4.858-10.767,17.643,17.643,0,0,1,12.426-4.468A21.559,21.559,0,0,1,355.225,53.3l-8.252,8.252q-5.029-4.981-9.13-4.981a5.741,5.741,0,0,0-3.515.952,2.86,2.86,0,0,0-1.27,2.368,2.909,2.909,0,0,0,.806,1.977,15.033,15.033,0,0,0,3.98,2.466l4.883,2.442q7.715,3.808,10.6,7.763A16.172,16.172,0,0,1,351,95.631q-5.2,4.736-13.94,4.736A22.161,22.161,0,0,1,318.505,91.285Zm-56.747,1.1q-7.51-7.984-7.51-19.849,0-12.305,7.267-20.166a23.154,23.154,0,0,1,17.655-7.861,22.423,22.423,0,0,1,8.973,1.807,24.471,24.471,0,0,1,7.755,5.42v-5.86h13.33V99H295.9V93.385a26.136,26.136,0,0,1-7.827,5.347,21.924,21.924,0,0,1-8.511,1.635Q269.27,100.367,261.759,92.384Zm9.859-31.2a15.748,15.748,0,0,0-4.088,11.206,15.916,15.916,0,0,0,4.161,11.328,13.483,13.483,0,0,0,10.244,4.443,13.733,13.733,0,0,0,10.414-4.37q4.136-4.37,4.136-11.45a15.517,15.517,0,0,0-4.136-11.231,13.9,13.9,0,0,0-10.462-4.3A13.468,13.468,0,0,0,271.617,61.183ZM174.194,92.237a26.971,26.971,0,0,1-8.081-19.751,26.877,26.877,0,0,1,9.131-20.751,26.671,26.671,0,0,1,18.408-7.227,28.16,28.16,0,0,1,14.136,3.76,27.572,27.572,0,0,1,14.038,24.121,27.9,27.9,0,0,1-3.736,14.063A26.948,26.948,0,0,1,207.91,96.681a28.11,28.11,0,0,1-14.208,3.686A26.5,26.5,0,0,1,174.194,92.237Zm9.333-30.859a15.349,15.349,0,0,0-4.133,11.059q0,6.934,4.084,11.23a13.66,13.66,0,0,0,10.345,4.3,13.819,13.819,0,0,0,10.418-4.346A15.512,15.512,0,0,0,208.4,72.437a15.412,15.412,0,0,0-4.084-11.109,14.718,14.718,0,0,0-20.787.049ZM110.034,92.066a27.609,27.609,0,0,1,6.69-43.848,32.144,32.144,0,0,1,15.454-3.711,31.346,31.346,0,0,1,14.209,3.149,26.96,26.96,0,0,1,10.3,8.96l-11.1,6.1a18.8,18.8,0,0,0-6.184-4.541,18.583,18.583,0,0,0-7.162-1.269q-7.479,0-12.1,4.46a15.2,15.2,0,0,0-4.62,11.432,14.693,14.693,0,0,0,4.449,11.067q4.448,4.29,11.684,4.29,8.946,0,13.932-6.1l10.511,7.2q-8.544,11.115-24.121,11.114Q117.969,100.367,110.034,92.066ZM621.533,99V45.875h11.426v6.69a14.271,14.271,0,0,1,4.931-6.006,11.9,11.9,0,0,1,6.738-2.051,12.46,12.46,0,0,1,5.42,1.367L645.9,57.35a9.167,9.167,0,0,0-3.857-1.172q-3.077,0-5.2,3.808t-2.124,14.942l.049,2.588V99ZM504.1,99V27.174h11.293q9.827,0,14.373,1.27a19.243,19.243,0,0,1,10.266,6.348,16.689,16.689,0,0,1,3.813,10.937,15.937,15.937,0,0,1-1.733,7.447,18.948,18.948,0,0,1-5.639,6.275q6.543,3.075,9.571,7.69a19.442,19.442,0,0,1,3.027,10.913,20.327,20.327,0,0,1-3.128,11.036,19.969,19.969,0,0,1-8.065,7.446Q532.942,99,524.241,99Zm13.672-13.037H521.2q8.52,0,11.481-2.148a7.237,7.237,0,0,0,2.963-6.25,8.757,8.757,0,0,0-3.477-7.324q-3.476-2.687-11.555-2.686h-2.839Zm0-30.615h2.99q5,0,7.426-2.1a7.163,7.163,0,0,0,2.425-5.712,6.685,6.685,0,0,0-2.3-5.347q-2.3-1.978-7.009-1.977h-3.529ZM396.192,99V27.174H435.4V40.553H409.766V53.541H435.4V66.676H409.766v18.9H435.4V99ZM231.25,99V25.367H244.58V99Zm-152,0V45.875H92.578V99ZM52.619,99l-30.7-47.119V99H8.252V27.174H21.367L52.1,74.44V27.174H65.771V99ZM79.949,38.722A8.575,8.575,0,0,1,77.441,32.5a8.447,8.447,0,0,1,14.485-5.957,8.43,8.43,0,0,1,2.507,6.152A8.331,8.331,0,0,1,91.95,38.77a8.053,8.053,0,0,1-5.94,2.515A8.168,8.168,0,0,1,79.949,38.722Zm656.526-2.563,11.67-19.141h15.772L746.045,36.158Zm-462.7,0,11.67-19.141h15.772L283.35,36.158Z" transform="translate(-8.25 352)" fill="#fff"/>
    </g>
  </g>
  <circle id="Elipse_39" data-name="Elipse 39" cx="163" cy="163" r="163" transform="translate(216.748)" fill="#01013e"/>
  <g id="logo-simple" transform="translate(291.198 43.134)">
    <g data-type="innerShadowGroup">
      <rect id="Rectángulo_28-2" data-name="Rectángulo 28" width="45.097" height="156.564" rx="22.549" fill="#fff"/>
      <g transform="matrix(1, 0, 0, 1, -291.2, -43.13)" filter="url(#Rectángulo_28)">
        <rect id="Rectángulo_28-3" data-name="Rectángulo 28" width="45.097" height="156.564" rx="22.549" transform="translate(291.2 43.13)" fill="#fff"/>
      </g>
    </g>
    <g data-type="innerShadowGroup">
      <rect id="Rectángulo_29-2" data-name="Rectángulo 29" width="45.097" height="75.729" rx="22.549" transform="translate(0 164.222)" fill="#fff"/>
      <g transform="matrix(1, 0, 0, 1, -291.2, -43.13)" filter="url(#Rectángulo_29)">
        <rect id="Rectángulo_29-3" data-name="Rectángulo 29" width="45.097" height="75.729" rx="22.549" transform="translate(291.2 207.36)" fill="#fff"/>
      </g>
    </g>
    <g data-type="innerShadowGroup">
      <rect id="Rectángulo_30-2" data-name="Rectángulo 30" width="45.097" height="75.729" rx="22.549" transform="translate(66.37)" fill="#fff"/>
      <g transform="matrix(1, 0, 0, 1, -291.2, -43.13)" filter="url(#Rectángulo_30)">
        <rect id="Rectángulo_30-3" data-name="Rectángulo 30" width="45.097" height="75.729" rx="22.549" transform="translate(357.57 43.13)" fill="#fff"/>
      </g>
    </g>
    <g data-type="innerShadowGroup">
      <rect id="Rectángulo_31-2" data-name="Rectángulo 31" width="45.097" height="156.564" rx="22.549" transform="translate(65.519 83.388)" fill="#fff"/>
      <g transform="matrix(1, 0, 0, 1, -291.2, -43.13)" filter="url(#Rectángulo_31)">
        <rect id="Rectángulo_31-3" data-name="Rectángulo 31" width="45.097" height="156.564" rx="22.549" transform="translate(356.72 126.52)" fill="#fff"/>
      </g>
    </g>
    <g data-type="innerShadowGroup">
      <rect id="Rectángulo_32-2" data-name="Rectángulo 32" width="45.097" height="156.564" rx="22.549" transform="translate(131.888)" fill="url(#radial-gradient)"/>
      <g transform="matrix(1, 0, 0, 1, -291.2, -43.13)" filter="url(#Rectángulo_32)">
        <rect id="Rectángulo_32-3" data-name="Rectángulo 32" width="45.097" height="156.564" rx="22.549" transform="translate(423.09 43.13)" fill="#fff"/>
      </g>
    </g>
    <g data-type="innerShadowGroup">
      <rect id="Rectángulo_33-2" data-name="Rectángulo 33" width="45.097" height="75.729" rx="22.549" transform="translate(131.888 164.222)" fill="#fff"/>
      <g transform="matrix(1, 0, 0, 1, -291.2, -43.13)" filter="url(#Rectángulo_33)">
        <rect id="Rectángulo_33-3" data-name="Rectángulo 33" width="45.097" height="75.729" rx="22.549" transform="translate(423.09 207.36)" fill="#fff"/>
      </g>
    </g>
  </g>
</svg>
