<svg id="Componente_67_1" data-name="Componente 67 – 1" xmlns="http://www.w3.org/2000/svg" width="67" height="66" viewBox="0 0 67 66">
  <rect id="Rectángulo_202" data-name="Rectángulo 202" width="67" height="66" fill="none"/>
  <g id="Rectángulo_205" data-name="Rectángulo 205" transform="translate(48)" stroke="#000" stroke-width="1">
    <rect width="19" height="4" stroke="none"/>
    <rect x="0.5" y="0.5" width="18" height="3" fill="none"/>
  </g>
  <line id="Línea_69" data-name="Línea 69" y2="62" transform="translate(10 4)" fill="none" stroke="#000" stroke-width="1"/>
  <g id="Rectángulo_206" data-name="Rectángulo 206" transform="translate(24)" stroke="#000" stroke-width="1">
    <rect width="19" height="4" stroke="none"/>
    <rect x="0.5" y="0.5" width="18" height="3" fill="none"/>
  </g>
  <g id="Rectángulo_207" data-name="Rectángulo 207" stroke="#000" stroke-width="1">
    <rect width="19" height="4" stroke="none"/>
    <rect x="0.5" y="0.5" width="18" height="3" fill="none"/>
  </g>
  <line id="Línea_70" data-name="Línea 70" y2="62" transform="translate(34 4)" fill="none" stroke="#000" stroke-width="1"/>
  <line id="Línea_71" data-name="Línea 71" y2="62" transform="translate(58 4)" fill="none" stroke="#000" stroke-width="1"/>
  <rect id="Rectángulo_208" data-name="Rectángulo 208" width="26.482" height="4" transform="translate(36 19.5) rotate(90)"/>
  <rect id="Rectángulo_209" data-name="Rectángulo 209" width="8.549" height="4" transform="translate(12 10.951) rotate(90)"/>
  <rect id="Rectángulo_210" data-name="Rectángulo 210" width="8.549" height="4" transform="translate(60 19.5) rotate(90)"/>
  <rect id="Rectángulo_211" data-name="Rectángulo 211" width="8.549" height="4" transform="translate(12 29.951) rotate(90)"/>
  <rect id="Rectángulo_212" data-name="Rectángulo 212" width="8.549" height="4" transform="translate(12 45.982) rotate(90)"/>
  <path id="Trazado_58" data-name="Trazado 58" d="M0,0H24.5" transform="translate(10 19.5)" fill="none" stroke="#000" stroke-width="1"/>
  <line id="Línea_73" data-name="Línea 73" x2="23.5" transform="translate(34.5 19.5)" fill="none" stroke="#000" stroke-width="1"/>
  <line id="Línea_74" data-name="Línea 74" x2="23.5" transform="translate(10 29.951)" fill="none" stroke="#000" stroke-width="1"/>
  <line id="Línea_75" data-name="Línea 75" x2="24.5" transform="translate(34 28.049)" fill="none" stroke="#000" stroke-width="1"/>
  <line id="Línea_76" data-name="Línea 76" x2="24.5" transform="translate(9.5 38.5)" fill="none" stroke="#000" stroke-width="1"/>
  <line id="Línea_77" data-name="Línea 77" x2="24.5" transform="translate(9.5 45.982)" fill="none" stroke="#000" stroke-width="1"/>
</svg>
