<svg xmlns="http://www.w3.org/2000/svg" width="450" height="450" viewBox="0 0 450 450">
  <circle id="Elipse_55" data-name="Elipse 55" cx="225" cy="225" r="225" fill="none"/>
  <path id="Intersección_13" data-name="Intersección 13" d="M206.339,260.536V229.9a22.549,22.549,0,1,1,45.1,0v30.632a22.549,22.549,0,1,1-45.1,0Zm-66.37,0V149.07a22.549,22.549,0,0,1,45.1,0V260.536a22.549,22.549,0,1,1-45.1,0Zm-65.519,0V229.9a22.549,22.549,0,0,1,45.1,0v30.632a22.549,22.549,0,1,1-45.1,0Zm131.889-83.388V65.682a22.549,22.549,0,1,1,45.1,0V177.149a22.549,22.549,0,0,1-45.1,0Zm-131.889,0V65.682a22.549,22.549,0,0,1,45.1,0V177.149a22.549,22.549,0,0,1-45.1,0Zm66.37-80.834V65.682a22.549,22.549,0,0,1,45.1,0V96.314a22.549,22.549,0,1,1-45.1,0Z" transform="translate(62.057 61.763)"/>
</svg>
