<svg xmlns="http://www.w3.org/2000/svg" width="761.035" height="83.35" viewBox="0 0 761.035 83.35">
  <path id="Intersección_16" data-name="Intersección 16" d="M737.646,83.35q-8.74,0-14.135-3.906a20.642,20.642,0,0,1-7.593-10.889q-1.562-4.833-1.562-17.578V28.858h13.477V54.444q0,7.471,1.028,10.376a9.06,9.06,0,0,0,3.3,4.516,9.452,9.452,0,0,0,5.605,1.612,9.789,9.789,0,0,0,5.654-1.588,9.3,9.3,0,0,0,3.45-4.663q.833-2.3.833-9.815V28.858h13.33v22.51q0,13.916-2.2,19.043a20.77,20.77,0,0,1-7.91,9.595Q745.7,83.349,737.646,83.35Zm-66.388,0q-10.29,0-17.8-7.983t-7.51-19.849q0-12.305,7.267-20.166a23.154,23.154,0,0,1,17.655-7.861,22.431,22.431,0,0,1,8.974,1.807,24.467,24.467,0,0,1,7.754,5.42V8.35h13.33V81.983H687.6V76.368a26.135,26.135,0,0,1-7.827,5.347A21.921,21.921,0,0,1,671.259,83.35Zm-7.943-39.184a15.748,15.748,0,0,0-4.088,11.206A15.916,15.916,0,0,0,663.389,66.7a13.483,13.483,0,0,0,10.244,4.443,13.733,13.733,0,0,0,10.414-4.37q4.136-4.37,4.136-11.45a15.517,15.517,0,0,0-4.136-11.231,13.9,13.9,0,0,0-10.463-4.3A13.468,13.468,0,0,0,663.316,44.166ZM578.125,83.35q-12.5,0-20.362-7.886T549.9,55.714q0-12.158,7.837-20.191a26.32,26.32,0,0,1,19.653-8.033q12.55,0,20.41,8.033t7.862,21.216l-.049,2.539H562.793a14.26,14.26,0,0,0,4.956,9.009,15.553,15.553,0,0,0,10.278,3.344,17.773,17.773,0,0,0,12.842-5.225l11.23,5.274a26.509,26.509,0,0,1-10.058,8.813A31.453,31.453,0,0,1,578.125,83.35ZM568.27,41.9q-2.641,1.953-4.891,6.885h28.906a13.373,13.373,0,0,0-5.208-7.227,15.1,15.1,0,0,0-9.024-2.783A15.957,15.957,0,0,0,568.27,41.9ZM445.7,83.35a7.668,7.668,0,0,1-7.666-7.666,7.308,7.308,0,0,1,2.246-5.4,7.724,7.724,0,0,1,10.84,0,7.308,7.308,0,0,1,2.246,5.4A7.668,7.668,0,0,1,445.7,83.35Zm-116.895,0a22.16,22.16,0,0,1-18.555-9.082l8.2-8.935a18.966,18.966,0,0,0,5.493,4.419,12.17,12.17,0,0,0,5.592,1.684,6.671,6.671,0,0,0,4.248-1.269,3.683,3.683,0,0,0,1.611-2.93q0-3.075-5.81-6.006L325.1,58.985q-12.89-6.495-12.89-16.26a14.109,14.109,0,0,1,4.858-10.767,17.643,17.643,0,0,1,12.426-4.468,21.559,21.559,0,0,1,17.481,8.789l-8.252,8.252q-5.029-4.981-9.13-4.981a5.741,5.741,0,0,0-3.515.952,2.86,2.86,0,0,0-1.27,2.368,2.909,2.909,0,0,0,.806,1.977,15.033,15.033,0,0,0,3.98,2.466l4.883,2.442q7.715,3.808,10.6,7.763a16.172,16.172,0,0,1-2.319,21.094Q337.549,83.35,328.809,83.35Zm-57.5,0q-10.29,0-17.8-7.983T246,55.518q0-12.305,7.267-20.166a23.154,23.154,0,0,1,17.655-7.861,22.424,22.424,0,0,1,8.973,1.807,24.471,24.471,0,0,1,7.755,5.42v-5.86h13.33V81.983h-13.33V76.368a26.135,26.135,0,0,1-7.827,5.347A21.924,21.924,0,0,1,271.308,83.35Zm-7.943-39.184a15.748,15.748,0,0,0-4.088,11.206A15.916,15.916,0,0,0,263.438,66.7a13.483,13.483,0,0,0,10.244,4.443,13.733,13.733,0,0,0,10.414-4.37q4.136-4.37,4.136-11.45A15.517,15.517,0,0,0,284.1,44.092a13.9,13.9,0,0,0-10.462-4.3A13.468,13.468,0,0,0,263.365,44.166ZM185.45,83.35a26.5,26.5,0,0,1-19.508-8.13,26.971,26.971,0,0,1-8.081-19.751,26.877,26.877,0,0,1,9.131-20.751A26.671,26.671,0,0,1,185.4,27.491a28.16,28.16,0,0,1,14.136,3.76,27.572,27.572,0,0,1,14.038,24.121,27.9,27.9,0,0,1-3.736,14.063,26.948,26.948,0,0,1-10.181,10.229A28.11,28.11,0,0,1,185.45,83.35ZM175.275,44.361a15.349,15.349,0,0,0-4.133,11.059q0,6.934,4.084,11.23a13.659,13.659,0,0,0,10.345,4.3A13.819,13.819,0,0,0,195.989,66.6a15.512,15.512,0,0,0,4.157-11.182,15.412,15.412,0,0,0-4.084-11.109,14.718,14.718,0,0,0-20.787.049ZM123.73,83.35q-14.013,0-21.948-8.3a27.609,27.609,0,0,1,6.69-43.848,32.144,32.144,0,0,1,15.454-3.711,31.345,31.345,0,0,1,14.209,3.149,26.96,26.96,0,0,1,10.3,8.96l-11.1,6.1a18.8,18.8,0,0,0-6.184-4.541,18.583,18.583,0,0,0-7.162-1.269q-7.479,0-12.1,4.46a15.2,15.2,0,0,0-4.62,11.432,14.693,14.693,0,0,0,4.449,11.067q4.448,4.29,11.684,4.29,8.946,0,13.932-6.1l10.511,7.2Q139.307,83.35,123.73,83.35Zm489.55-1.367V28.858h11.426v6.69a14.272,14.272,0,0,1,4.931-6.006,11.9,11.9,0,0,1,6.738-2.051,12.461,12.461,0,0,1,5.42,1.367l-4.15,11.475a9.167,9.167,0,0,0-3.857-1.172q-3.077,0-5.2,3.808T626.465,57.91l.049,2.588V81.983Zm-117.431,0V10.156h11.293q9.827,0,14.373,1.27a19.242,19.242,0,0,1,10.266,6.348A16.689,16.689,0,0,1,535.6,28.711a15.936,15.936,0,0,1-1.733,7.447,18.947,18.947,0,0,1-5.639,6.275q6.543,3.075,9.571,7.691a19.442,19.442,0,0,1,3.027,10.912,20.327,20.327,0,0,1-3.128,11.036,19.969,19.969,0,0,1-8.065,7.446q-4.937,2.466-13.638,2.466Zm13.672-13.037h3.427q8.52,0,11.481-2.148a7.237,7.237,0,0,0,2.963-6.25,8.757,8.757,0,0,0-3.477-7.324q-3.476-2.687-11.555-2.686h-2.84Zm0-30.615h2.99q5,0,7.426-2.1a7.163,7.163,0,0,0,2.426-5.712,6.685,6.685,0,0,0-2.3-5.347q-2.3-1.978-7.009-1.977h-3.529ZM387.94,81.983V10.156h39.208V23.536H401.513V36.524h25.635V49.658H401.513v18.9h25.635V81.983ZM223,81.983V8.35h13.331V81.983Zm-152,0V28.858H84.326V81.983Zm-26.628,0-30.7-47.12v47.12H0V10.156H13.115L43.847,57.423V10.156H57.519V81.983ZM71.7,21.7a8.575,8.575,0,0,1-2.507-6.225,8.2,8.2,0,0,1,2.483-6.006,8.418,8.418,0,0,1,12,.049,8.43,8.43,0,0,1,2.507,6.152A8.331,8.331,0,0,1,83.7,21.753a8.053,8.053,0,0,1-5.94,2.515A8.168,8.168,0,0,1,71.7,21.7Zm656.526-2.563L739.893,0h15.772L737.793,19.141Zm-462.7,0L277.2,0h15.772L275.1,19.141Z"/>
</svg>
