<svg xmlns="http://www.w3.org/2000/svg" xmlns:xlink="http://www.w3.org/1999/xlink" width="343" height="343" viewBox="0 0 343 343">
  <defs>
    <filter id="Rectángulo_64" x="0" y="0" width="343" height="343" filterUnits="userSpaceOnUse">
      <feOffset input="SourceAlpha"/>
      <feGaussianBlur stdDeviation="49.5" result="blur"/>
      <feFlood flood-color="#fff" flood-opacity="0.2" result="color"/>
      <feComposite operator="out" in="SourceGraphic" in2="blur"/>
      <feComposite operator="in" in="color"/>
      <feComposite operator="in" in2="SourceGraphic"/>
    </filter>
    <filter id="Trazado_52" x="53.568" y="110" width="236" height="135" filterUnits="userSpaceOnUse">
      <feOffset input="SourceAlpha"/>
      <feGaussianBlur stdDeviation="49.5" result="blur-2"/>
      <feFlood flood-color="#fff" flood-opacity="0.2" result="color-2"/>
      <feComposite operator="out" in="SourceGraphic" in2="blur-2"/>
      <feComposite operator="in" in="color-2"/>
      <feComposite operator="in" in2="SourceGraphic"/>
    </filter>
    <filter id="Trazado_49" x="288.422" y="110" width="9.51" height="19" filterUnits="userSpaceOnUse">
      <feOffset input="SourceAlpha"/>
      <feGaussianBlur stdDeviation="10" result="blur-3"/>
      <feFlood flood-color="#fff" flood-opacity="0.2" result="color-3"/>
      <feComposite operator="out" in="SourceGraphic" in2="blur-3"/>
      <feComposite operator="in" in="color-3"/>
      <feComposite operator="in" in2="SourceGraphic"/>
    </filter>
    <filter id="Trazado_48" x="288.422" y="129" width="9.51" height="7.342" filterUnits="userSpaceOnUse">
      <feOffset input="SourceAlpha"/>
      <feGaussianBlur stdDeviation="10" result="blur-4"/>
      <feFlood flood-color="#fff" flood-opacity="0.2" result="color-4"/>
      <feComposite operator="out" in="SourceGraphic" in2="blur-4"/>
      <feComposite operator="in" in="color-4"/>
      <feComposite operator="in" in2="SourceGraphic"/>
    </filter>
    <filter id="Trazado_50" x="45.068" y="110" width="9.51" height="19" filterUnits="userSpaceOnUse">
      <feOffset input="SourceAlpha"/>
      <feGaussianBlur stdDeviation="10" result="blur-5"/>
      <feFlood flood-color="#fff" flood-opacity="0.2" result="color-5"/>
      <feComposite operator="out" in="SourceGraphic" in2="blur-5"/>
      <feComposite operator="in" in="color-5"/>
      <feComposite operator="in" in2="SourceGraphic"/>
    </filter>
    <filter id="Trazado_51" x="45.068" y="129" width="9.51" height="7.342" filterUnits="userSpaceOnUse">
      <feOffset input="SourceAlpha"/>
      <feGaussianBlur stdDeviation="10" result="blur-6"/>
      <feFlood flood-color="#fff" flood-opacity="0.2" result="color-6"/>
      <feComposite operator="out" in="SourceGraphic" in2="blur-6"/>
      <feComposite operator="in" in="color-6"/>
      <feComposite operator="in" in2="SourceGraphic"/>
    </filter>
  </defs>
  <g data-type="innerShadowGroup">
    <g transform="matrix(1, 0, 0, 1, 0, 0)" filter="url(#Rectángulo_64)">
      <rect id="Rectángulo_64-2" data-name="Rectángulo 64" width="343" height="343" rx="60" fill="#fff"/>
    </g>
    <g id="Rectángulo_64-3" data-name="Rectángulo 64" fill="none" stroke="#fff" stroke-width="1">
      <rect width="343" height="343" rx="60" stroke="none"/>
      <rect x="0.5" y="0.5" width="342" height="342" rx="59.5" fill="none"/>
    </g>
  </g>
  <g id="Componente_42_1" data-name="Componente 42 – 1" transform="translate(45.068 110)">
    <g data-type="innerShadowGroup">
      <g transform="matrix(1, 0, 0, 1, -45.07, -110)" filter="url(#Trazado_52)">
        <g id="Trazado_52-2" data-name="Trazado 52" transform="translate(53.57 110)" fill="#fff">
          <path d="M0,0H236V135H0Z" stroke="none"/>
          <path d="M 0.9999847412109375 1 L 0.9999847412109375 134 L 235.0001373291016 134 L 235.0001373291016 1 L 0.9999847412109375 1 M -1.52587890625e-05 0 L 236.0001373291016 0 L 236.0001373291016 135 L -1.52587890625e-05 135 L -1.52587890625e-05 0 Z" stroke="none"/>
        </g>
      </g>
      <g id="Trazado_52-3" data-name="Trazado 52" transform="translate(8.5)" fill="none">
        <path d="M0,0H236V135H0Z" stroke="none"/>
        <path d="M 0.9999847412109375 1 L 0.9999847412109375 134 L 235.0001373291016 134 L 235.0001373291016 1 L 0.9999847412109375 1 M -1.52587890625e-05 0 L 236.0001373291016 0 L 236.0001373291016 135 L -1.52587890625e-05 135 L -1.52587890625e-05 0 Z" stroke="none" fill="#fff"/>
      </g>
    </g>
    <g id="Rectángulo_57" data-name="Rectángulo 57" transform="translate(22.5 45)" fill="none" stroke="#fff" stroke-width="1">
      <rect width="123" height="67" stroke="none"/>
      <rect x="0.5" y="0.5" width="122" height="66" fill="none"/>
    </g>
    <g id="Rectángulo_58" data-name="Rectángulo 58" transform="translate(155.5 45)" fill="none" stroke="#fff" stroke-width="1">
      <rect width="75" height="57" stroke="none"/>
      <rect x="0.5" y="0.5" width="74" height="56" fill="none"/>
    </g>
    <g id="Rectángulo_64-4" data-name="Rectángulo 64" transform="translate(22.5 54)" fill="none" stroke="#fff" stroke-width="1">
      <rect width="123" height="12" stroke="none"/>
      <rect x="0.5" y="0.5" width="122" height="11" fill="none"/>
    </g>
    <text id="xxxx_xxxx_xxxx" data-name="xxxx xxxx xxxx" transform="translate(29.433 87)" fill="#fff" font-size="12" font-family="CenturyGothic, Century Gothic"><tspan x="0" y="0">xxxx xxxx xxxx</tspan></text>
    <text id="xxxx" transform="translate(128.501 73)" fill="#fff" font-size="5" font-family="CenturyGothic, Century Gothic"><tspan x="0" y="0">xxxx</tspan></text>
    <text id="xx_xx" data-name="xx/xx" transform="translate(29.5 93)" fill="#fff" font-size="4" font-family="CenturyGothic, Century Gothic"><tspan x="0" y="0">xx/xx</tspan></text>
    <text id="xx_xx-2" data-name="xx/xx" transform="translate(50.5 93)" fill="#fff" font-size="4" font-family="CenturyGothic, Century Gothic"><tspan x="0" y="0">xx/xx</tspan></text>
    <line id="Línea_13" data-name="Línea 13" x2="87" transform="translate(29.5 101.5)" fill="none" stroke="#fff" stroke-width="1"/>
    <line id="Línea_14" data-name="Línea 14" x2="23" transform="translate(162 57.5)" fill="none" stroke="#fff" stroke-width="1"/>
    <line id="Línea_15" data-name="Línea 15" x2="30" transform="translate(162 66)" fill="none" stroke="#fff" stroke-width="1"/>
    <line id="Línea_16" data-name="Línea 16" x2="19" transform="translate(162 73.5)" fill="none" stroke="#fff" stroke-width="1"/>
    <line id="Línea_17" data-name="Línea 17" x2="9" transform="translate(215 57.5)" fill="none" stroke="#fff" stroke-width="1"/>
    <line id="Línea_18" data-name="Línea 18" x2="9" transform="translate(215 66)" fill="none" stroke="#fff" stroke-width="1"/>
    <line id="Línea_19" data-name="Línea 19" x2="9" transform="translate(215 74.5)" fill="none" stroke="#fff" stroke-width="1"/>
    <g id="Rectángulo_65" data-name="Rectángulo 65" transform="translate(162.5 91)" fill="none" stroke="#fff" stroke-width="1">
      <rect width="19" height="5" stroke="none"/>
      <rect x="0.5" y="0.5" width="18" height="4" fill="none"/>
    </g>
    <g id="Rectángulo_66" data-name="Rectángulo 66" transform="translate(188.5 91)" fill="none" stroke="#fff" stroke-width="1">
      <rect width="36" height="5" stroke="none"/>
      <rect x="0.5" y="0.5" width="35" height="4" fill="none"/>
    </g>
    <g id="Rectángulo_67" data-name="Rectángulo 67" transform="translate(8.5)" fill="none" stroke="#fff" stroke-width="1">
      <rect width="17" height="19" stroke="none"/>
      <rect x="0.5" y="0.5" width="16" height="18" fill="none"/>
    </g>
    <g id="Trazado_29" data-name="Trazado 29" transform="translate(8.5 19)" fill="none">
      <path d="M0,0H16.647l-2,7.342H2.015Z" stroke="none"/>
      <path d="M 1.311418533325195 0.9999985694885254 L 2.77745532989502 6.341798305511475 L 13.87996673583984 6.341798305511475 L 15.33782577514648 0.9999985694885254 L 1.311418533325195 0.9999985694885254 M -3.814697265625e-06 -1.430511474609375e-06 L 16.64731788635254 -1.430511474609375e-06 L 14.64362716674805 7.341798305511475 L 2.014926910400391 7.341798305511475 L -3.814697265625e-06 -1.430511474609375e-06 Z" stroke="none" fill="#fff"/>
    </g>
    <g id="Rectángulo_68" data-name="Rectángulo 68" transform="translate(24.5)" fill="none" stroke="#fff" stroke-width="1">
      <rect width="16" height="19" stroke="none"/>
      <rect x="0.5" y="0.5" width="15" height="18" fill="none"/>
    </g>
    <g id="Trazado_30" data-name="Trazado 30" transform="translate(24.168 19)" fill="none">
      <path d="M0,0H16.647l-2,7.342H2.015Z" stroke="none"/>
      <path d="M 1.311418533325195 0.9999985694885254 L 2.77745532989502 6.341798305511475 L 13.87996673583984 6.341798305511475 L 15.33782577514648 0.9999985694885254 L 1.311418533325195 0.9999985694885254 M -3.814697265625e-06 -1.430511474609375e-06 L 16.64731788635254 -1.430511474609375e-06 L 14.64362716674805 7.341798305511475 L 2.014926910400391 7.341798305511475 L -3.814697265625e-06 -1.430511474609375e-06 Z" stroke="none" fill="#fff"/>
    </g>
    <g id="Rectángulo_69" data-name="Rectángulo 69" transform="translate(39.5)" fill="none" stroke="#fff" stroke-width="1">
      <rect width="17" height="19" stroke="none"/>
      <rect x="0.5" y="0.5" width="16" height="18" fill="none"/>
    </g>
    <g id="Trazado_31" data-name="Trazado 31" transform="translate(39.837 19)" fill="none">
      <path d="M0,0H16.647l-2,7.342H2.015Z" stroke="none"/>
      <path d="M 1.311418533325195 0.9999985694885254 L 2.77745532989502 6.341798305511475 L 13.87996673583984 6.341798305511475 L 15.33782577514648 0.9999985694885254 L 1.311418533325195 0.9999985694885254 M -3.814697265625e-06 -1.430511474609375e-06 L 16.64731788635254 -1.430511474609375e-06 L 14.64362716674805 7.341798305511475 L 2.014926910400391 7.341798305511475 L -3.814697265625e-06 -1.430511474609375e-06 Z" stroke="none" fill="#fff"/>
    </g>
    <g id="Rectángulo_70" data-name="Rectángulo 70" transform="translate(55.5)" fill="none" stroke="#fff" stroke-width="1">
      <rect width="17" height="19" stroke="none"/>
      <rect x="0.5" y="0.5" width="16" height="18" fill="none"/>
    </g>
    <g id="Trazado_32" data-name="Trazado 32" transform="translate(55.505 19)" fill="none">
      <path d="M0,0H16.647l-2,7.342H2.015Z" stroke="none"/>
      <path d="M 1.311418533325195 0.9999985694885254 L 2.77745532989502 6.341798305511475 L 13.87996673583984 6.341798305511475 L 15.33782577514648 0.9999985694885254 L 1.311418533325195 0.9999985694885254 M -3.814697265625e-06 -1.430511474609375e-06 L 16.64731788635254 -1.430511474609375e-06 L 14.64362716674805 7.341798305511475 L 2.014926910400391 7.341798305511475 L -3.814697265625e-06 -1.430511474609375e-06 Z" stroke="none" fill="#fff"/>
    </g>
    <g id="Rectángulo_71" data-name="Rectángulo 71" transform="translate(71.501)" fill="none" stroke="#fff" stroke-width="1">
      <rect width="16" height="19" stroke="none"/>
      <rect x="0.5" y="0.5" width="15" height="18" fill="none"/>
    </g>
    <g id="Trazado_33" data-name="Trazado 33" transform="translate(71.172 19)" fill="none">
      <path d="M0,0H16.647l-2,7.342H2.015Z" stroke="none"/>
      <path d="M 1.311418533325195 0.9999985694885254 L 2.77745532989502 6.341798305511475 L 13.87996673583984 6.341798305511475 L 15.33782577514648 0.9999985694885254 L 1.311418533325195 0.9999985694885254 M -3.814697265625e-06 -1.430511474609375e-06 L 16.64731788635254 -1.430511474609375e-06 L 14.64362716674805 7.341798305511475 L 2.014926910400391 7.341798305511475 L -3.814697265625e-06 -1.430511474609375e-06 Z" stroke="none" fill="#fff"/>
    </g>
    <g id="Rectángulo_72" data-name="Rectángulo 72" transform="translate(86.5)" fill="none" stroke="#fff" stroke-width="1">
      <rect width="17" height="19" stroke="none"/>
      <rect x="0.5" y="0.5" width="16" height="18" fill="none"/>
    </g>
    <g id="Trazado_34" data-name="Trazado 34" transform="translate(86.841 19)" fill="none">
      <path d="M0,0H16.647l-2,7.342H2.015Z" stroke="none"/>
      <path d="M 1.311418533325195 0.9999985694885254 L 2.77745532989502 6.341798305511475 L 13.87996673583984 6.341798305511475 L 15.33782577514648 0.9999985694885254 L 1.311418533325195 0.9999985694885254 M -3.814697265625e-06 -1.430511474609375e-06 L 16.64731788635254 -1.430511474609375e-06 L 14.64362716674805 7.341798305511475 L 2.014926910400391 7.341798305511475 L -3.814697265625e-06 -1.430511474609375e-06 Z" stroke="none" fill="#fff"/>
    </g>
    <g id="Rectángulo_73" data-name="Rectángulo 73" transform="translate(102.5)" fill="none" stroke="#fff" stroke-width="1">
      <rect width="17" height="19" stroke="none"/>
      <rect x="0.5" y="0.5" width="16" height="18" fill="none"/>
    </g>
    <g id="Trazado_35" data-name="Trazado 35" transform="translate(102.509 19)" fill="none">
      <path d="M0,0H16.647l-2,7.342H2.015Z" stroke="none"/>
      <path d="M 1.311418533325195 0.9999985694885254 L 2.77745532989502 6.341798305511475 L 13.87996673583984 6.341798305511475 L 15.33782577514648 0.9999985694885254 L 1.311418533325195 0.9999985694885254 M -3.814697265625e-06 -1.430511474609375e-06 L 16.64731788635254 -1.430511474609375e-06 L 14.64362716674805 7.341798305511475 L 2.014926910400391 7.341798305511475 L -3.814697265625e-06 -1.430511474609375e-06 Z" stroke="none" fill="#fff"/>
    </g>
    <g id="Rectángulo_74" data-name="Rectángulo 74" transform="translate(118.5)" fill="none" stroke="#fff" stroke-width="1">
      <rect width="16" height="19" stroke="none"/>
      <rect x="0.5" y="0.5" width="15" height="18" fill="none"/>
    </g>
    <g id="Rectángulo_75" data-name="Rectángulo 75" transform="translate(118.5)" fill="none" stroke="#fff" stroke-width="1">
      <rect width="16" height="19" stroke="none"/>
      <rect x="0.5" y="0.5" width="15" height="18" fill="none"/>
    </g>
    <g id="Trazado_37" data-name="Trazado 37" transform="translate(118.177 19)" fill="none">
      <path d="M0,0H16.647l-2,7.342H2.015Z" stroke="none"/>
      <path d="M 1.311418533325195 0.9999985694885254 L 2.77745532989502 6.341798305511475 L 13.87996673583984 6.341798305511475 L 15.33782577514648 0.9999985694885254 L 1.311418533325195 0.9999985694885254 M -3.814697265625e-06 -1.430511474609375e-06 L 16.64731788635254 -1.430511474609375e-06 L 14.64362716674805 7.341798305511475 L 2.014926910400391 7.341798305511475 L -3.814697265625e-06 -1.430511474609375e-06 Z" stroke="none" fill="#fff"/>
    </g>
    <g id="Rectángulo_77" data-name="Rectángulo 77" transform="translate(133.5)" fill="none" stroke="#fff" stroke-width="1">
      <rect width="17" height="19" stroke="none"/>
      <rect x="0.5" y="0.5" width="16" height="18" fill="none"/>
    </g>
    <g id="Trazado_38" data-name="Trazado 38" transform="translate(133.845 19)" fill="none">
      <path d="M0,0H16.647l-2,7.342H2.015Z" stroke="none"/>
      <path d="M 1.311418533325195 0.9999985694885254 L 2.77745532989502 6.341798305511475 L 13.87996673583984 6.341798305511475 L 15.33782577514648 0.9999985694885254 L 1.311418533325195 0.9999985694885254 M -3.814697265625e-06 -1.430511474609375e-06 L 16.64731788635254 -1.430511474609375e-06 L 14.64362716674805 7.341798305511475 L 2.014926910400391 7.341798305511475 L -3.814697265625e-06 -1.430511474609375e-06 Z" stroke="none" fill="#fff"/>
    </g>
    <g id="Rectángulo_78" data-name="Rectángulo 78" transform="translate(149.501)" fill="none" stroke="#fff" stroke-width="1">
      <rect width="17" height="19" stroke="none"/>
      <rect x="0.5" y="0.5" width="16" height="18" fill="none"/>
    </g>
    <g id="Rectángulo_79" data-name="Rectángulo 79" transform="translate(149.501)" fill="none" stroke="#fff" stroke-width="1">
      <rect width="17" height="19" stroke="none"/>
      <rect x="0.5" y="0.5" width="16" height="18" fill="none"/>
    </g>
    <g id="Trazado_40" data-name="Trazado 40" transform="translate(149.514 19)" fill="none">
      <path d="M0,0H16.647l-2,7.342H2.015Z" stroke="none"/>
      <path d="M 1.311418533325195 0.9999985694885254 L 2.77745532989502 6.341798305511475 L 13.87996673583984 6.341798305511475 L 15.33782577514648 0.9999985694885254 L 1.311418533325195 0.9999985694885254 M -3.814697265625e-06 -1.430511474609375e-06 L 16.64731788635254 -1.430511474609375e-06 L 14.64362716674805 7.341798305511475 L 2.014926910400391 7.341798305511475 L -3.814697265625e-06 -1.430511474609375e-06 Z" stroke="none" fill="#fff"/>
    </g>
    <g id="Rectángulo_80" data-name="Rectángulo 80" transform="translate(165.5)" fill="none" stroke="#fff" stroke-width="1">
      <rect width="16" height="19" stroke="none"/>
      <rect x="0.5" y="0.5" width="15" height="18" fill="none"/>
    </g>
    <g id="Trazado_41" data-name="Trazado 41" transform="translate(165.181 19)" fill="none">
      <path d="M0,0H16.647l-2,7.342H2.015Z" stroke="none"/>
      <path d="M 1.311418533325195 0.9999985694885254 L 2.77745532989502 6.341798305511475 L 13.87996673583984 6.341798305511475 L 15.33782577514648 0.9999985694885254 L 1.311418533325195 0.9999985694885254 M -3.814697265625e-06 -1.430511474609375e-06 L 16.64731788635254 -1.430511474609375e-06 L 14.64362716674805 7.341798305511475 L 2.014926910400391 7.341798305511475 L -3.814697265625e-06 -1.430511474609375e-06 Z" stroke="none" fill="#fff"/>
    </g>
    <g id="Rectángulo_81" data-name="Rectángulo 81" transform="translate(180.5)" fill="none" stroke="#fff" stroke-width="1">
      <rect width="17" height="19" stroke="none"/>
      <rect x="0.5" y="0.5" width="16" height="18" fill="none"/>
    </g>
    <g id="Rectángulo_82" data-name="Rectángulo 82" transform="translate(180.5)" fill="none" stroke="#fff" stroke-width="1">
      <rect width="17" height="19" stroke="none"/>
      <rect x="0.5" y="0.5" width="16" height="18" fill="none"/>
    </g>
    <g id="Trazado_43" data-name="Trazado 43" transform="translate(180.849 19)" fill="none">
      <path d="M0,0H16.647l-2,7.342H2.015Z" stroke="none"/>
      <path d="M 1.311418533325195 0.9999985694885254 L 2.77745532989502 6.341798305511475 L 13.87996673583984 6.341798305511475 L 15.33782577514648 0.9999985694885254 L 1.311418533325195 0.9999985694885254 M -3.814697265625e-06 -1.430511474609375e-06 L 16.64731788635254 -1.430511474609375e-06 L 14.64362716674805 7.341798305511475 L 2.014926910400391 7.341798305511475 L -3.814697265625e-06 -1.430511474609375e-06 Z" stroke="none" fill="#fff"/>
    </g>
    <g id="Rectángulo_83" data-name="Rectángulo 83" transform="translate(196.5)" fill="none" stroke="#fff" stroke-width="1">
      <rect width="17" height="19" stroke="none"/>
      <rect x="0.5" y="0.5" width="16" height="18" fill="none"/>
    </g>
    <g id="Trazado_44" data-name="Trazado 44" transform="translate(196.517 19)" fill="none">
      <path d="M0,0H16.647l-2,7.342H2.015Z" stroke="none"/>
      <path d="M 1.311418533325195 0.9999985694885254 L 2.77745532989502 6.341798305511475 L 13.87996673583984 6.341798305511475 L 15.33782577514648 0.9999985694885254 L 1.311418533325195 0.9999985694885254 M -3.814697265625e-06 -1.430511474609375e-06 L 16.64731788635254 -1.430511474609375e-06 L 14.64362716674805 7.341798305511475 L 2.014926910400391 7.341798305511475 L -3.814697265625e-06 -1.430511474609375e-06 Z" stroke="none" fill="#fff"/>
    </g>
    <g id="Rectángulo_84" data-name="Rectángulo 84" transform="translate(212.5)" fill="none" stroke="#fff" stroke-width="1">
      <rect width="16" height="19" stroke="none"/>
      <rect x="0.5" y="0.5" width="15" height="18" fill="none"/>
    </g>
    <g id="Rectángulo_85" data-name="Rectángulo 85" transform="translate(212.5)" fill="none" stroke="#fff" stroke-width="1">
      <rect width="16" height="19" stroke="none"/>
      <rect x="0.5" y="0.5" width="15" height="18" fill="none"/>
    </g>
    <g id="Trazado_46" data-name="Trazado 46" transform="translate(212.185 19)" fill="none">
      <path d="M0,0H16.647l-2,7.342H2.015Z" stroke="none"/>
      <path d="M 1.311418533325195 0.9999985694885254 L 2.77745532989502 6.341798305511475 L 13.87996673583984 6.341798305511475 L 15.33782577514648 0.9999985694885254 L 1.311418533325195 0.9999985694885254 M -3.814697265625e-06 -1.430511474609375e-06 L 16.64731788635254 -1.430511474609375e-06 L 14.64362716674805 7.341798305511475 L 2.014926910400391 7.341798305511475 L -3.814697265625e-06 -1.430511474609375e-06 Z" stroke="none" fill="#fff"/>
    </g>
    <g id="Rectángulo_86" data-name="Rectángulo 86" transform="translate(227.501)" fill="none" stroke="#fff" stroke-width="1">
      <rect width="17" height="19" stroke="none"/>
      <rect x="0.5" y="0.5" width="16" height="18" fill="none"/>
    </g>
    <g id="Trazado_47" data-name="Trazado 47" transform="translate(227.854 19)" fill="none">
      <path d="M0,0H16.647l-2,7.342H2.015Z" stroke="none"/>
      <path d="M 1.311418533325195 0.9999985694885254 L 2.77745532989502 6.341798305511475 L 13.87996673583984 6.341798305511475 L 15.33782577514648 0.9999985694885254 L 1.311418533325195 0.9999985694885254 M -3.814697265625e-06 -1.430511474609375e-06 L 16.64731788635254 -1.430511474609375e-06 L 14.64362716674805 7.341798305511475 L 2.014926910400391 7.341798305511475 L -3.814697265625e-06 -1.430511474609375e-06 Z" stroke="none" fill="#fff"/>
    </g>
    <g data-type="innerShadowGroup">
      <g transform="matrix(1, 0, 0, 1, -45.07, -110)" filter="url(#Trazado_49)">
        <g id="Trazado_49-2" data-name="Trazado 49" transform="translate(288.42 110)" fill="#fff">
          <path d="M0,0H6.285L9.51,19H0Z" stroke="none"/>
          <path d="M 0.9999961853027344 1 L 0.9999961853027344 18 L 8.325728416442871 18 L 5.440121650695801 1 L 0.9999961853027344 1 M -3.814697265625e-06 0 L 6.284686088562012 0 L 9.50977611541748 19 L -3.814697265625e-06 19 L -3.814697265625e-06 0 Z" stroke="none"/>
        </g>
      </g>
      <g id="Trazado_49-3" data-name="Trazado 49" transform="translate(243.354)" fill="none">
        <path d="M0,0H6.285L9.51,19H0Z" stroke="none"/>
        <path d="M 0.9999961853027344 1 L 0.9999961853027344 18 L 8.325728416442871 18 L 5.440121650695801 1 L 0.9999961853027344 1 M -3.814697265625e-06 0 L 6.284686088562012 0 L 9.50977611541748 19 L -3.814697265625e-06 19 L -3.814697265625e-06 0 Z" stroke="none" fill="#fff"/>
      </g>
    </g>
    <g data-type="innerShadowGroup">
      <g transform="matrix(1, 0, 0, 1, -45.07, -110)" filter="url(#Trazado_48)">
        <g id="Trazado_48-2" data-name="Trazado 48" transform="translate(288.42 129)" fill="#fff">
          <path d="M0,0H9.51L8.051,7.342H0Z" stroke="none"/>
          <path d="M 0.9999961853027344 0.9999985694885254 L 0.9999961853027344 6.341798305511475 L 7.22974681854248 6.341798305511475 L 8.291463851928711 0.9999985694885254 L 0.9999961853027344 0.9999985694885254 M -3.814697265625e-06 -1.430511474609375e-06 L 9.50977611541748 -1.430511474609375e-06 L 8.050546646118164 7.341798305511475 L -3.814697265625e-06 7.341798305511475 L -3.814697265625e-06 -1.430511474609375e-06 Z" stroke="none"/>
        </g>
      </g>
      <g id="Trazado_48-3" data-name="Trazado 48" transform="translate(243.354 19)" fill="none" stroke-linecap="round">
        <path d="M0,0H9.51L8.051,7.342H0Z" stroke="none"/>
        <path d="M 0.9999961853027344 0.9999985694885254 L 0.9999961853027344 6.341798305511475 L 7.22974681854248 6.341798305511475 L 8.291463851928711 0.9999985694885254 L 0.9999961853027344 0.9999985694885254 M -3.814697265625e-06 -1.430511474609375e-06 L 9.50977611541748 -1.430511474609375e-06 L 8.050546646118164 7.341798305511475 L -3.814697265625e-06 7.341798305511475 L -3.814697265625e-06 -1.430511474609375e-06 Z" stroke="none" fill="#fff"/>
      </g>
    </g>
    <g data-type="innerShadowGroup">
      <g transform="matrix(1, 0, 0, 1, -45.07, -110)" filter="url(#Trazado_50)">
        <g id="Trazado_50-2" data-name="Trazado 50" transform="translate(45.07 110)" fill="#fff">
          <path d="M9.51,0H3.225L0,19H9.51Z" stroke="none"/>
          <path d="M 4.069650650024414 1 L 1.184043884277344 18 L 8.50977611541748 18 L 8.50977611541748 1 L 4.069650650024414 1 M 3.225086212158203 0 L 9.50977611541748 0 L 9.50977611541748 19 L -3.814697265625e-06 19 L 3.225086212158203 0 Z" stroke="none"/>
        </g>
      </g>
      <g id="Trazado_50-3" data-name="Trazado 50" fill="none">
        <path d="M9.51,0H3.225L0,19H9.51Z" stroke="none"/>
        <path d="M 4.069650650024414 1 L 1.184043884277344 18 L 8.50977611541748 18 L 8.50977611541748 1 L 4.069650650024414 1 M 3.225086212158203 0 L 9.50977611541748 0 L 9.50977611541748 19 L -3.814697265625e-06 19 L 3.225086212158203 0 Z" stroke="none" fill="#fff"/>
      </g>
    </g>
    <g data-type="innerShadowGroup">
      <g transform="matrix(1, 0, 0, 1, -45.07, -110)" filter="url(#Trazado_51)">
        <g id="Trazado_51-2" data-name="Trazado 51" transform="translate(45.07 129)" fill="#fff">
          <path d="M9.51,0H0L1.459,7.342H9.51Z" stroke="none"/>
          <path d="M 1.218308448791504 0.9999985694885254 L 2.280025482177734 6.341798305511475 L 8.50977611541748 6.341798305511475 L 8.50977611541748 0.9999985694885254 L 1.218308448791504 0.9999985694885254 M -3.814697265625e-06 -1.430511474609375e-06 L 9.50977611541748 -1.430511474609375e-06 L 9.50977611541748 7.341798305511475 L 1.459226608276367 7.341798305511475 L -3.814697265625e-06 -1.430511474609375e-06 Z" stroke="none"/>
        </g>
      </g>
      <g id="Trazado_51-3" data-name="Trazado 51" transform="translate(0 19)" fill="none" stroke-linecap="round">
        <path d="M9.51,0H0L1.459,7.342H9.51Z" stroke="none"/>
        <path d="M 1.218308448791504 0.9999985694885254 L 2.280025482177734 6.341798305511475 L 8.50977611541748 6.341798305511475 L 8.50977611541748 0.9999985694885254 L 1.218308448791504 0.9999985694885254 M -3.814697265625e-06 -1.430511474609375e-06 L 9.50977611541748 -1.430511474609375e-06 L 9.50977611541748 7.341798305511475 L 1.459226608276367 7.341798305511475 L -3.814697265625e-06 -1.430511474609375e-06 Z" stroke="none" fill="#fff"/>
      </g>
    </g>
  </g>
</svg>
