<svg id="Componente_66_1" data-name="Componente 66 – 1" xmlns="http://www.w3.org/2000/svg" width="67" height="66" viewBox="0 0 67 66">
  <g id="Rectángulo_198" data-name="Rectángulo 198" fill="none" stroke="#000" stroke-width="2">
    <rect width="67" height="66" rx="5" stroke="none"/>
    <rect x="1" y="1" width="65" height="64" rx="4" fill="none"/>
  </g>
  <g id="Rectángulo_199" data-name="Rectángulo 199" fill="none" stroke="#000" stroke-width="2">
    <path d="M5,0H62a5,5,0,0,1,5,5V17a0,0,0,0,1,0,0H0a0,0,0,0,1,0,0V5A5,5,0,0,1,5,0Z" stroke="none"/>
    <path d="M5,1H62a4,4,0,0,1,4,4V15a1,1,0,0,1-1,1H2a1,1,0,0,1-1-1V5A4,4,0,0,1,5,1Z" fill="none"/>
  </g>
  <g id="Elipse_60" data-name="Elipse 60" transform="translate(58 7)" stroke="#000" stroke-width="1">
    <circle cx="1.5" cy="1.5" r="1.5" stroke="none"/>
    <circle cx="1.5" cy="1.5" r="2" fill="none"/>
  </g>
  <g id="Elipse_61" data-name="Elipse 61" transform="translate(51 7)" stroke="#000" stroke-width="1">
    <circle cx="1.5" cy="1.5" r="1.5" stroke="none"/>
    <circle cx="1.5" cy="1.5" r="2" fill="none"/>
  </g>
  <g id="Elipse_62" data-name="Elipse 62" transform="translate(44 7)" stroke="#000" stroke-width="1">
    <circle cx="1.5" cy="1.5" r="1.5" stroke="none"/>
    <circle cx="1.5" cy="1.5" r="2" fill="none"/>
  </g>
  <g id="Rectángulo_200" data-name="Rectángulo 200" transform="translate(39 23)" fill="none" stroke="#000" stroke-width="2">
    <rect width="18" height="16" stroke="none"/>
    <rect x="1" y="1" width="16" height="14" fill="none"/>
  </g>
  <g id="Rectángulo_201" data-name="Rectángulo 201" transform="translate(11 23)" fill="none" stroke="#000" stroke-width="2">
    <rect width="18" height="16" stroke="none"/>
    <rect x="1" y="1" width="16" height="14" fill="none"/>
  </g>
  <line id="Línea_59" data-name="Línea 59" x2="15" transform="translate(39 43.5)" fill="none" stroke="#000" stroke-width="2"/>
  <line id="Línea_60" data-name="Línea 60" x2="12.5" transform="translate(39 47.5)" fill="none" stroke="#000" stroke-width="2"/>
  <line id="Línea_61" data-name="Línea 61" x2="12.5" transform="translate(39 51.5)" fill="none" stroke="#000" stroke-width="2"/>
  <line id="Línea_62" data-name="Línea 62" x2="14.5" transform="translate(39 55.5)" fill="none" stroke="#000" stroke-width="2"/>
  <line id="Línea_63" data-name="Línea 63" x2="9.5" transform="translate(39 59.5)" fill="none" stroke="#000" stroke-width="2"/>
  <line id="Línea_64" data-name="Línea 64" x2="15" transform="translate(11 43.5)" fill="none" stroke="#000" stroke-width="2"/>
  <line id="Línea_65" data-name="Línea 65" x2="12.5" transform="translate(11 47.5)" fill="none" stroke="#000" stroke-width="2"/>
  <line id="Línea_66" data-name="Línea 66" x2="12.5" transform="translate(11 51.5)" fill="none" stroke="#000" stroke-width="2"/>
  <line id="Línea_67" data-name="Línea 67" x2="14.5" transform="translate(11 55.5)" fill="none" stroke="#000" stroke-width="2"/>
  <line id="Línea_68" data-name="Línea 68" x2="9.5" transform="translate(11 59.5)" fill="none" stroke="#000" stroke-width="2"/>
</svg>
