<svg xmlns="http://www.w3.org/2000/svg" xmlns:xlink="http://www.w3.org/1999/xlink" width="438.865" height="133.686" viewBox="0 0 438.865 133.686">
  <defs>
    <filter id="Intersección_3">
      <feOffset input="SourceAlpha"/>
      <feGaussianBlur stdDeviation="1" result="blur"/>
      <feFlood flood-opacity="0.8" result="color"/>
      <feComposite operator="out" in="SourceGraphic" in2="blur"/>
      <feComposite operator="in" in="color"/>
      <feComposite operator="in" in2="SourceGraphic"/>
    </filter>
    <filter id="Intersección_2">
      <feOffset input="SourceAlpha"/>
      <feGaussianBlur stdDeviation="5" result="blur-2"/>
      <feFlood flood-opacity="0.8" result="color-2"/>
      <feComposite operator="out" in="SourceGraphic" in2="blur-2"/>
      <feComposite operator="in" in="color-2"/>
      <feComposite operator="in" in2="SourceGraphic"/>
    </filter>
  </defs>
  <g data-type="innerShadowGroup">
    <path id="Intersección_3-2" data-name="Intersección 3" d="M4.231,36.77A12.12,12.12,0,0,1,.5,32.326l2.319-1.391Q5.27,35.442,8.48,35.443a5.419,5.419,0,0,0,2.578-.64A4.524,4.524,0,0,0,12.9,33.087a4.435,4.435,0,0,0,.631-2.282,4.622,4.622,0,0,0-.928-2.69,22.23,22.23,0,0,0-4.675-4.379,23.91,23.91,0,0,1-4.249-3.729,6.821,6.821,0,0,1-1.447-4.175,6.337,6.337,0,0,1,.853-3.247,6.093,6.093,0,0,1,2.4-2.31,6.93,6.93,0,0,1,3.368-.844,7.178,7.178,0,0,1,3.609.956A12.372,12.372,0,0,1,16.013,13.9L13.786,15.59A10.7,10.7,0,0,0,11.161,12.9a4.526,4.526,0,0,0-2.366-.649,3.749,3.749,0,0,0-2.7,1,3.28,3.28,0,0,0-1.048,2.468,4.2,4.2,0,0,0,.371,1.725,6.379,6.379,0,0,0,1.354,1.819q.539.52,3.525,2.727a19.852,19.852,0,0,1,4.862,4.657,7.511,7.511,0,0,1,1.317,4.1,6.961,6.961,0,0,1-2.255,5.159A7.575,7.575,0,0,1,8.739,38.1,8.04,8.04,0,0,1,4.231,36.77Zm142.439.4a7.246,7.246,0,0,1-2.63-2.1l1.634-1.856a5.678,5.678,0,0,0,4.222,2.245,3.8,3.8,0,0,0,2.659-1,3.1,3.1,0,0,0,1.1-2.357,3.022,3.022,0,0,0-.725-1.985,11.658,11.658,0,0,0-3.272-2.152,10.479,10.479,0,0,1-3.719-2.784,5.241,5.241,0,0,1-.985-3.136,5.1,5.1,0,0,1,1.57-3.822,5.471,5.471,0,0,1,3.968-1.521q2.788,0,5.612,2.727l-1.67,1.726a6,6,0,0,0-4.074-2.022,3.08,3.08,0,0,0-2.167.834,2.578,2.578,0,0,0-.9,1.949,2.886,2.886,0,0,0,.744,1.874,10.441,10.441,0,0,0,3.124,2.134,11.668,11.668,0,0,1,3.942,2.894,5.278,5.278,0,0,1,1.022,3.173,5.7,5.7,0,0,1-1.747,4.212,5.965,5.965,0,0,1-4.367,1.725A7.64,7.64,0,0,1,146.669,37.169Zm-46.812-2.4A10.814,10.814,0,0,1,99.7,20.1a10.543,10.543,0,0,1,15.484-.019,10.838,10.838,0,0,1-.158,14.686,10.671,10.671,0,0,1-15.167,0Zm2.016-13.127a8,8,0,0,0-2.327,5.789,8.213,8.213,0,0,0,1.061,4.082,7.518,7.518,0,0,0,2.867,2.922,8.154,8.154,0,0,0,7.933,0,7.524,7.524,0,0,0,2.867-2.922,8.213,8.213,0,0,0,1.061-4.082A7.983,7.983,0,0,0,113,21.639a7.66,7.66,0,0,0-11.126,0ZM57.9,36.733a7.377,7.377,0,0,1-2.95-3.34,16.321,16.321,0,0,1-.974-6.448V17.222h2.6v9.426a20.128,20.128,0,0,0,.372,4.75,5.3,5.3,0,0,0,2.128,2.931,6.462,6.462,0,0,0,3.745,1.076,6.319,6.319,0,0,0,3.688-1.049A5.363,5.363,0,0,0,68.6,31.6a19.474,19.474,0,0,0,.39-4.955V17.222H71.64v9.908a15.662,15.662,0,0,1-.975,6.29,7.433,7.433,0,0,1-2.931,3.312,9.259,9.259,0,0,1-4.908,1.2A9.36,9.36,0,0,1,57.9,36.733ZM23.783,34.766A10.814,10.814,0,0,1,23.625,20.1a9.993,9.993,0,0,1,7.751-3.4,10,10,0,0,1,7.733,3.377,10.838,10.838,0,0,1-.158,14.686,9.886,9.886,0,0,1-7.574,3.163A9.907,9.907,0,0,1,23.783,34.766ZM25.8,21.639a8,8,0,0,0-2.327,5.789,8.213,8.213,0,0,0,1.061,4.082A7.518,7.518,0,0,0,27.4,34.432a8.154,8.154,0,0,0,7.933,0A7.518,7.518,0,0,0,38.2,31.51a8.212,8.212,0,0,0,1.061-4.082,7.983,7.983,0,0,0-2.336-5.789,7.66,7.66,0,0,0-11.126,0ZM137.787,37.41V27.78a23.74,23.74,0,0,0-.289-4.657,5.116,5.116,0,0,0-1.732-3.015,5.229,5.229,0,0,0-3.34-1.012,6.408,6.408,0,0,0-4.222,1.559,7.3,7.3,0,0,0-2.459,3.859,26.832,26.832,0,0,0-.372,5.493v7.4h-2.6V17.222h2.6V20.84a10.868,10.868,0,0,1,3.451-3.108,8.48,8.48,0,0,1,4.119-1.03,7.155,7.155,0,0,1,4.017,1.15,6.849,6.849,0,0,1,2.588,3.1,16.372,16.372,0,0,1,.835,6.067V37.41Zm-47.89,0V17.222h2.6V37.41Zm-10.224,0V19.468H76.13V17.222h3.543v-7.5h2.6v7.5h4.119v2.246H82.272V37.41Zm-33.361,0V9.429h2.6V37.41ZM89.69,12.565a2.057,2.057,0,0,1-.628-1.5,2.079,2.079,0,0,1,.628-1.521,2.112,2.112,0,0,1,3.011,0,2.079,2.079,0,0,1,.628,1.521,2.127,2.127,0,0,1-3.64,1.5Z" transform="translate(282.745 95.59)" fill="#fff"/>
    <g transform="matrix(1, 0, 0, 1, 0, 0)" filter="url(#Intersección_3)">
      <path id="Intersección_3-3" data-name="Intersección 3" d="M4.231,36.77A12.12,12.12,0,0,1,.5,32.326l2.319-1.391Q5.27,35.442,8.48,35.443a5.419,5.419,0,0,0,2.578-.64A4.524,4.524,0,0,0,12.9,33.087a4.435,4.435,0,0,0,.631-2.282,4.622,4.622,0,0,0-.928-2.69,22.23,22.23,0,0,0-4.675-4.379,23.91,23.91,0,0,1-4.249-3.729,6.821,6.821,0,0,1-1.447-4.175,6.337,6.337,0,0,1,.853-3.247,6.093,6.093,0,0,1,2.4-2.31,6.93,6.93,0,0,1,3.368-.844,7.178,7.178,0,0,1,3.609.956A12.372,12.372,0,0,1,16.013,13.9L13.786,15.59A10.7,10.7,0,0,0,11.161,12.9a4.526,4.526,0,0,0-2.366-.649,3.749,3.749,0,0,0-2.7,1,3.28,3.28,0,0,0-1.048,2.468,4.2,4.2,0,0,0,.371,1.725,6.379,6.379,0,0,0,1.354,1.819q.539.52,3.525,2.727a19.852,19.852,0,0,1,4.862,4.657,7.511,7.511,0,0,1,1.317,4.1,6.961,6.961,0,0,1-2.255,5.159A7.575,7.575,0,0,1,8.739,38.1,8.04,8.04,0,0,1,4.231,36.77Zm142.439.4a7.246,7.246,0,0,1-2.63-2.1l1.634-1.856a5.678,5.678,0,0,0,4.222,2.245,3.8,3.8,0,0,0,2.659-1,3.1,3.1,0,0,0,1.1-2.357,3.022,3.022,0,0,0-.725-1.985,11.658,11.658,0,0,0-3.272-2.152,10.479,10.479,0,0,1-3.719-2.784,5.241,5.241,0,0,1-.985-3.136,5.1,5.1,0,0,1,1.57-3.822,5.471,5.471,0,0,1,3.968-1.521q2.788,0,5.612,2.727l-1.67,1.726a6,6,0,0,0-4.074-2.022,3.08,3.08,0,0,0-2.167.834,2.578,2.578,0,0,0-.9,1.949,2.886,2.886,0,0,0,.744,1.874,10.441,10.441,0,0,0,3.124,2.134,11.668,11.668,0,0,1,3.942,2.894,5.278,5.278,0,0,1,1.022,3.173,5.7,5.7,0,0,1-1.747,4.212,5.965,5.965,0,0,1-4.367,1.725A7.64,7.64,0,0,1,146.669,37.169Zm-46.812-2.4A10.814,10.814,0,0,1,99.7,20.1a10.543,10.543,0,0,1,15.484-.019,10.838,10.838,0,0,1-.158,14.686,10.671,10.671,0,0,1-15.167,0Zm2.016-13.127a8,8,0,0,0-2.327,5.789,8.213,8.213,0,0,0,1.061,4.082,7.518,7.518,0,0,0,2.867,2.922,8.154,8.154,0,0,0,7.933,0,7.524,7.524,0,0,0,2.867-2.922,8.213,8.213,0,0,0,1.061-4.082A7.983,7.983,0,0,0,113,21.639a7.66,7.66,0,0,0-11.126,0ZM57.9,36.733a7.377,7.377,0,0,1-2.95-3.34,16.321,16.321,0,0,1-.974-6.448V17.222h2.6v9.426a20.128,20.128,0,0,0,.372,4.75,5.3,5.3,0,0,0,2.128,2.931,6.462,6.462,0,0,0,3.745,1.076,6.319,6.319,0,0,0,3.688-1.049A5.363,5.363,0,0,0,68.6,31.6a19.474,19.474,0,0,0,.39-4.955V17.222H71.64v9.908a15.662,15.662,0,0,1-.975,6.29,7.433,7.433,0,0,1-2.931,3.312,9.259,9.259,0,0,1-4.908,1.2A9.36,9.36,0,0,1,57.9,36.733ZM23.783,34.766A10.814,10.814,0,0,1,23.625,20.1a9.993,9.993,0,0,1,7.751-3.4,10,10,0,0,1,7.733,3.377,10.838,10.838,0,0,1-.158,14.686,9.886,9.886,0,0,1-7.574,3.163A9.907,9.907,0,0,1,23.783,34.766ZM25.8,21.639a8,8,0,0,0-2.327,5.789,8.213,8.213,0,0,0,1.061,4.082A7.518,7.518,0,0,0,27.4,34.432a8.154,8.154,0,0,0,7.933,0A7.518,7.518,0,0,0,38.2,31.51a8.212,8.212,0,0,0,1.061-4.082,7.983,7.983,0,0,0-2.336-5.789,7.66,7.66,0,0,0-11.126,0ZM137.787,37.41V27.78a23.74,23.74,0,0,0-.289-4.657,5.116,5.116,0,0,0-1.732-3.015,5.229,5.229,0,0,0-3.34-1.012,6.408,6.408,0,0,0-4.222,1.559,7.3,7.3,0,0,0-2.459,3.859,26.832,26.832,0,0,0-.372,5.493v7.4h-2.6V17.222h2.6V20.84a10.868,10.868,0,0,1,3.451-3.108,8.48,8.48,0,0,1,4.119-1.03,7.155,7.155,0,0,1,4.017,1.15,6.849,6.849,0,0,1,2.588,3.1,16.372,16.372,0,0,1,.835,6.067V37.41Zm-47.89,0V17.222h2.6V37.41Zm-10.224,0V19.468H76.13V17.222h3.543v-7.5h2.6v7.5h4.119v2.246H82.272V37.41Zm-33.361,0V9.429h2.6V37.41ZM89.69,12.565a2.057,2.057,0,0,1-.628-1.5,2.079,2.079,0,0,1,.628-1.521,2.112,2.112,0,0,1,3.011,0,2.079,2.079,0,0,1,.628,1.521,2.127,2.127,0,0,1-3.64,1.5Z" transform="translate(282.75 95.59)" fill="#fff"/>
    </g>
  </g>
  <g data-type="innerShadowGroup">
    <path id="Intersección_2-2" data-name="Intersección 2" d="M273.04,117.9a25.18,25.18,0,0,1-9.263-13.285q-1.906-5.9-1.906-21.445V56.188h16.441V87.4q0,9.114,1.255,12.659a11.051,11.051,0,0,0,4.03,5.51,11.528,11.528,0,0,0,6.838,1.966,11.946,11.946,0,0,0,6.9-1.936,11.364,11.364,0,0,0,4.209-5.69q1.015-2.8,1.015-11.974V56.188H318.82V83.65q0,16.978-2.681,23.233a25.344,25.344,0,0,1-9.65,11.705q-6.375,4.08-16.2,4.081Q279.624,122.668,273.04,117.9ZM133.9,112.928q-9.162-9.74-9.163-24.215,0-15.012,8.866-24.6a28.245,28.245,0,0,1,21.54-9.591,27.38,27.38,0,0,1,10.947,2.2,29.883,29.883,0,0,1,9.462,6.612V56.188h16.262V121H175.554v-6.85a31.885,31.885,0,0,1-9.55,6.522,26.717,26.717,0,0,1-10.383,2Q143.067,122.668,133.9,112.928ZM145.93,74.863q-4.987,5.331-4.987,13.671,0,8.4,5.076,13.82a16.445,16.445,0,0,0,12.5,5.421,16.752,16.752,0,0,0,12.705-5.332q5.046-5.331,5.046-13.969,0-8.459-5.046-13.7a16.962,16.962,0,0,0-12.765-5.243A16.431,16.431,0,0,0,145.93,74.863ZM417.946,121V88.117q0-11.02-2.741-14.922t-8.221-3.9a12.472,12.472,0,0,0-7.476,2.383,14.087,14.087,0,0,0-4.915,6.583q-1.608,4.2-1.608,13.493V121H376.6V89.607q0-8.7-1.283-12.6a11.4,11.4,0,0,0-3.851-5.809,10.126,10.126,0,0,0-6.211-1.906,12.237,12.237,0,0,0-7.374,2.413,14.387,14.387,0,0,0-4.956,6.761q-1.642,4.35-1.642,13.7V121H335.023V56.188h16.263v7.446a27.755,27.755,0,0,1,9.27-6.851,27.09,27.09,0,0,1,11.118-2.264A20.655,20.655,0,0,1,382.642,57.5a21.52,21.52,0,0,1,7.869,8.7,26.265,26.265,0,0,1,9.509-8.7,25.925,25.925,0,0,1,12.31-2.979,22.8,22.8,0,0,1,12.161,3.217,18.586,18.586,0,0,1,7.541,8.4q2.3,5.183,2.3,16.859V121Zm-207.9,0V33.372h16.68v71.723h24.3V121ZM96.683,121V56.188h16.263V121Zm-41.044,0V56.188H69.578v8.16a17.42,17.42,0,0,1,6.017-7.327,14.519,14.519,0,0,1,8.221-2.5,15.2,15.2,0,0,1,6.612,1.669l-5.063,14a11.184,11.184,0,0,0-4.706-1.43q-3.753,0-6.344,4.647T71.723,91.632l.059,3.157V121Zm-38.721,0V49.813H1.37V33.372H49.8V49.813H33.836V121ZM97.538,47.461a10.46,10.46,0,0,1-3.059-7.6A10.306,10.306,0,0,1,112.15,32.6a10.286,10.286,0,0,1,3.059,7.505,10.168,10.168,0,0,1-3.029,7.417,9.826,9.826,0,0,1-7.247,3.068A9.967,9.967,0,0,1,97.538,47.461Z" transform="translate(-1.37 -29.5)" fill="#fff"/>
    <g transform="matrix(1, 0, 0, 1, 0, 0)" filter="url(#Intersección_2)">
      <path id="Intersección_2-3" data-name="Intersección 2" d="M273.04,117.9a25.18,25.18,0,0,1-9.263-13.285q-1.906-5.9-1.906-21.445V56.188h16.441V87.4q0,9.114,1.255,12.659a11.051,11.051,0,0,0,4.03,5.51,11.528,11.528,0,0,0,6.838,1.966,11.946,11.946,0,0,0,6.9-1.936,11.364,11.364,0,0,0,4.209-5.69q1.015-2.8,1.015-11.974V56.188H318.82V83.65q0,16.978-2.681,23.233a25.344,25.344,0,0,1-9.65,11.705q-6.375,4.08-16.2,4.081Q279.624,122.668,273.04,117.9ZM133.9,112.928q-9.162-9.74-9.163-24.215,0-15.012,8.866-24.6a28.245,28.245,0,0,1,21.54-9.591,27.38,27.38,0,0,1,10.947,2.2,29.883,29.883,0,0,1,9.462,6.612V56.188h16.262V121H175.554v-6.85a31.885,31.885,0,0,1-9.55,6.522,26.717,26.717,0,0,1-10.383,2Q143.067,122.668,133.9,112.928ZM145.93,74.863q-4.987,5.331-4.987,13.671,0,8.4,5.076,13.82a16.445,16.445,0,0,0,12.5,5.421,16.752,16.752,0,0,0,12.705-5.332q5.046-5.331,5.046-13.969,0-8.459-5.046-13.7a16.962,16.962,0,0,0-12.765-5.243A16.431,16.431,0,0,0,145.93,74.863ZM417.946,121V88.117q0-11.02-2.741-14.922t-8.221-3.9a12.472,12.472,0,0,0-7.476,2.383,14.087,14.087,0,0,0-4.915,6.583q-1.608,4.2-1.608,13.493V121H376.6V89.607q0-8.7-1.283-12.6a11.4,11.4,0,0,0-3.851-5.809,10.126,10.126,0,0,0-6.211-1.906,12.237,12.237,0,0,0-7.374,2.413,14.387,14.387,0,0,0-4.956,6.761q-1.642,4.35-1.642,13.7V121H335.023V56.188h16.263v7.446a27.755,27.755,0,0,1,9.27-6.851,27.09,27.09,0,0,1,11.118-2.264A20.655,20.655,0,0,1,382.642,57.5a21.52,21.52,0,0,1,7.869,8.7,26.265,26.265,0,0,1,9.509-8.7,25.925,25.925,0,0,1,12.31-2.979,22.8,22.8,0,0,1,12.161,3.217,18.586,18.586,0,0,1,7.541,8.4q2.3,5.183,2.3,16.859V121Zm-207.9,0V33.372h16.68v71.723h24.3V121ZM96.683,121V56.188h16.263V121Zm-41.044,0V56.188H69.578v8.16a17.42,17.42,0,0,1,6.017-7.327,14.519,14.519,0,0,1,8.221-2.5,15.2,15.2,0,0,1,6.612,1.669l-5.063,14a11.184,11.184,0,0,0-4.706-1.43q-3.753,0-6.344,4.647T71.723,91.632l.059,3.157V121Zm-38.721,0V49.813H1.37V33.372H49.8V49.813H33.836V121ZM97.538,47.461a10.46,10.46,0,0,1-3.059-7.6A10.306,10.306,0,0,1,112.15,32.6a10.286,10.286,0,0,1,3.059,7.505,10.168,10.168,0,0,1-3.029,7.417,9.826,9.826,0,0,1-7.247,3.068A9.967,9.967,0,0,1,97.538,47.461Z" transform="translate(-1.37 -29.5)" fill="#fff"/>
    </g>
  </g>
</svg>
